<?xml version="1.0" standalone="no"?>
<!DOCTYPE svg PUBLIC "-//W3C//DTD SVG 1.1//EN" "http://www.w3.org/Graphics/SVG/1.1/DTD/svg11.dtd" >
<svg xmlns="http://www.w3.org/2000/svg">
<metadata>
This is a custom SVG webfont generated by Font Squirrel.
Copyright   : 1988 Treacyfaces Inc All world rights reserved
</metadata>
<defs>
<font id="TFForeverRegularRegular" horiz-adv-x="989" >
<font-face units-per-em="2048" ascent="1638" descent="-410" />
<missing-glyph horiz-adv-x="493" />
<glyph unicode=" "  horiz-adv-x="493" />
<glyph unicode="&#x09;" horiz-adv-x="493" />
<glyph unicode="&#xa0;" horiz-adv-x="493" />
<glyph unicode="!" horiz-adv-x="442" d="M131 80q0 39 26.5 65.5t63.5 26.5q45 0 74 -24.5t29 -67.5q0 -37 -29 -61.5t-70 -24.5q-43 0 -68.5 23.5t-25.5 62.5zM141 690v758h166v-758l-24 -268l-111 -37z" />
<glyph unicode="&#x22;" horiz-adv-x="534" d="M104 1470h117l-31 -460h-55zM313 1470h117l-31 -460h-55z" />
<glyph unicode="#" horiz-adv-x="1368" d="M41 479l39 160h305l59 256h-305l35 160h307l115 487h154l-113 -487h219l113 487h153l-114 -487h317l-37 -160h-315l-60 -256h316l-37 -160h-315l-127 -553h-156l127 553h-219l-129 -553h-154l129 553h-307zM541 639h219l57 256h-217z" />
<glyph unicode="$" horiz-adv-x="1177" d="M156 199q104 -43 172 -60q49 -12 97 -18t73 -6l22 -2v581l-133 68q-215 113 -215 313q0 156 103.5 263.5t244.5 113.5v102h148v-94q57 0 121.5 -14t99.5 -31l35 -14l37 -162q-127 90 -265 90h-28v-512l94 -49q117 -59 195 -160q77 -98 77 -219q0 -111 -38 -188.5 t-91 -116.5t-107.5 -63.5t-90.5 -28.5l-39 -6v-146h-148v137q-57 0 -168 17q-37 6 -78 18.5t-61 22.5l-25 10zM344 1096q0 -47 18.5 -87t44 -63.5t51 -40t46.5 -24.5l16 -7v447q-6 0 -18.5 -2t-43 -15.5t-54 -35t-42 -67.5t-18.5 -105zM668 119q8 0 21 2t45 16.5t56.5 37 t46 72.5t21.5 118q0 88 -52 158.5t-138 103.5v-508z" />
<glyph unicode="%" horiz-adv-x="1585" d="M88 1104q0 369 307 369q311 0 312 -369q0 -375 -312 -375q-162 0 -234.5 103.5t-72.5 271.5zM215 1100q0 -127 49 -195.5t133 -68.5q182 0 183 264q0 127 -47.5 194.5t-135.5 67.5t-135 -67.5t-47 -194.5zM408 -25l696 1557h129l-701 -1557h-124zM913 352q0 371 308 371 q311 0 311 -371q0 -375 -311 -375q-162 0 -235 103.5t-73 271.5zM1040 350q0 -127 48.5 -196.5t132.5 -69.5q184 0 184 264q0 266 -184 266q-86 0 -133.5 -68.5t-47.5 -195.5z" />
<glyph unicode="&#x26;" horiz-adv-x="1335" d="M88 389q0 92 29.5 170t71.5 124t86 79t73 45l29 12l-43 45q-27 29 -71 113t-44 164q0 150 97.5 241t254.5 91q170 0 272.5 -93.5t102.5 -253.5q0 -78 -32.5 -144.5t-79 -104t-92.5 -63.5t-78 -36l-33 -10l342 -365q68 90 102 240q39 154 39 281l150 -41q0 -139 -52 -312 q-23 -80 -56.5 -148.5t-53.5 -98.5l-25 -29l205 -219l-121 -103l-180 199l-23 -21q-14 -13 -60 -45t-93 -57.5t-118 -46t-136 -20.5q-197 0 -330 107t-133 300zM268 410q0 -129 82 -204t211 -75q90 0 170 36t115 71l35 34l-402 439q-8 -2 -22.5 -8.5t-51 -29t-64.5 -53 t-50.5 -87.5t-22.5 -123zM395 1130q0 -61 37 -125.5t76 -97.5l37 -35q10 2 25.5 7.5t54.5 26t69.5 46t56 72.5t25.5 104q0 92 -55 145.5t-148 53.5q-72 0 -125 -52.5t-53 -144.5z" />
<glyph unicode="'" horiz-adv-x="337" d="M104 1470h117l-31 -460h-55z" />
<glyph unicode="(" horiz-adv-x="581" d="M90 655q0 236 77 470.5t236 420.5l58 -33q-223 -326 -223 -845q0 -162 22.5 -312.5t56 -248t66.5 -172t53 -107.5l25 -35l-58 -37l-33 35q-22 23 -76 103.5t-95 177t-75 253t-34 330.5z" />
<glyph unicode=")" horiz-adv-x="583" d="M145 -207q10 12 24.5 36t53.5 105.5t67.5 175t53.5 245t25 313.5q0 219 -53.5 453.5t-170.5 391.5l58 33q12 -12 33.5 -36.5t76 -110.5t95.5 -181.5t74.5 -248t33.5 -314.5q0 -174 -32.5 -328.5t-79 -254t-91.5 -175t-77 -110.5l-33 -31z" />
<glyph unicode="*" horiz-adv-x="534" d="M51 1108l209 102l-207 103l33 59l188 -133l-14 231h70l-23 -231l193 129l37 -61l-215 -97l213 -98l-35 -59l-193 129l23 -232h-70l14 232l-188 -131z" />
<glyph unicode="+" horiz-adv-x="1161" d="M115 647v158h387v373h162v-373h376v-158h-376v-393h-162v393h-387z" />
<glyph unicode="," horiz-adv-x="374" d="M61 -182q84 143 84 243q0 39 -10 82t-20 68l-11 22l168 72q16 -53 17 -133q0 -109 -41 -202t-121 -197z" />
<glyph unicode="-" horiz-adv-x="802" d="M57 483v160h688v-160h-688z" />
<glyph unicode="." horiz-adv-x="354" d="M84 80q0 39 26.5 65.5t63.5 26.5q45 0 73.5 -24.5t28.5 -67.5q0 -37 -28.5 -61.5t-69.5 -24.5q-43 0 -68.5 23.5t-25.5 62.5z" />
<glyph unicode="/" horiz-adv-x="430" d="M-55 -133l387 1638h94l-389 -1638h-92z" />
<glyph unicode="0" horiz-adv-x="1179" d="M82 729q0 162 26.5 291t84 232.5t159 160.5t242.5 57q137 0 239.5 -57t161 -160.5t85 -233.5t26.5 -290q0 -748 -512 -747q-274 0 -393 194.5t-119 552.5zM254 729q0 -295 88 -448.5t252 -153.5q166 0 253 152.5t87 449.5q0 287 -87 440.5t-253 153.5q-162 0 -251 -154.5 t-89 -439.5z" />
<glyph unicode="1" horiz-adv-x="1179" d="M293 1182l33 166l405 114v-1462h-166v1262z" />
<glyph unicode="2" horiz-adv-x="1179" d="M123 168l487 391q233 199 234 428q0 170 -99.5 254t-273.5 84q-98 0 -174 -23.5t-102 -48.5l-27 -22l37 164q12 6 36.5 20.5t107.5 36t177 21.5q213 0 350.5 -126t137.5 -339q0 -92 -23.5 -173t-51.5 -133.5t-81 -109.5t-79.5 -80t-84.5 -66l-385 -288h707l-47 -158h-830 z" />
<glyph unicode="3" horiz-adv-x="1179" d="M152 221q10 -8 32.5 -24.5t106.5 -43t190 -26.5q180 0 282.5 66.5t102.5 207.5q0 86 -42 146.5t-114.5 88.5t-143 39t-150.5 11l-115 -6l37 145q27 -2 67 -2q66 0 129.5 9.5t139.5 34t123 83t47 142.5q0 109 -88 171t-248 62q-231 0 -340 -94l37 164q12 8 36.5 21.5 t107.5 35t177 21.5q92 0 175 -19.5t155 -60.5t113 -115t41 -174q0 -154 -93.5 -240t-230.5 -102q14 0 38 -3t84 -24.5t106.5 -54.5t85 -104.5t38.5 -165.5q0 -115 -43 -201t-117.5 -135t-167 -73t-198.5 -24q-94 0 -175 20.5t-116 39.5l-33 20z" />
<glyph unicode="4" horiz-adv-x="1179" d="M80 541l633 907h190v-907h176v-152h-176v-391h-162v389h-610zM246 541h495v719z" />
<glyph unicode="5" horiz-adv-x="1179" d="M168 221q8 -8 30.5 -24.5t107.5 -43t192 -26.5q168 0 265 82t97 233q0 319 -348 320q-82 0 -164 -13.5t-125 -27.5l-41 -12l49 737h682v-152h-530l-25 -411q80 23 211 22q223 0 344 -122q119 -120 119 -339q0 -222 -144.5 -343t-363.5 -124q-92 0 -173 20.5t-113 39.5 l-33 20z" />
<glyph unicode="6" horiz-adv-x="1179" d="M121 729q0 143 28.5 270t91 237t175 173.5t264.5 63.5q92 0 167 -19.5t103 -40.5l27 -18l39 -166q-8 10 -29.5 25.5t-101.5 42t-180 26.5q-207 0 -307.5 -146.5t-100.5 -359.5v-8l50 27q32 16 126 43.5t186 27.5q180 0 313.5 -117.5t133.5 -340.5q0 -219 -133 -345.5 t-352 -126.5q-498 0 -500 752zM295 614q0 -90 14.5 -167.5t48 -152.5t101 -121t162.5 -46q139 0 226 86t87 225q0 145 -80 235.5t-231 90.5q-102 0 -183.5 -23.5t-113.5 -46.5l-29 -24q-2 -21 -2 -56z" />
<glyph unicode="7" horiz-adv-x="1179" d="M129 1294l45 152h897l-508 -1448h-172l469 1296h-731z" />
<glyph unicode="8" horiz-adv-x="1179" d="M119 385q0 82 33.5 147.5t80 102.5t97.5 63.5t81.5 35.5t34.5 9q-156 49 -228.5 143.5t-72.5 207.5q0 100 45.5 178t118 119t147 61.5t146.5 20.5q59 0 116.5 -9.5t121 -35t110.5 -65.5t77 -106.5t30 -152.5q0 -115 -68.5 -204t-220.5 -132q14 -4 34.5 -11t76 -38 t96.5 -70t75.5 -109.5t34.5 -152.5q0 -193 -142 -301.5t-341 -108.5q-209 0 -346 101.5t-137 306.5zM289 385q0 -117 83 -190.5t232 -73.5q147 0 228 68.5t81 187.5q0 86 -41 148.5t-100 93t-107.5 44t-76.5 13.5q-8 0 -36 -6t-74 -26.5t-87 -50.5t-71.5 -85t-30.5 -123z M313 1087q0 -57 31 -104t75 -73.5t91 -45t75.5 -24.5t30.5 -6q6 0 30 4t68 20t82 43t66.5 77t28.5 114q0 121 -83 180t-212 59q-139 0 -211 -65.5t-72 -178.5z" />
<glyph unicode="9" horiz-adv-x="1179" d="M100 1004q0 211 123 341t334 130q512 0 512 -752q0 -143 -29.5 -269t-91 -234.5t-174 -173t-264.5 -64.5q-92 0 -167 20.5t-103 38.5l-27 20l-39 164l31 -24q20 -16 100 -43t180 -27q211 0 309.5 146.5t98.5 367.5q-16 -12 -47 -28.5t-123 -44t-182 -27.5 q-178 0 -309.5 117t-131.5 342zM270 1012q0 -145 77 -235.5t228 -90.5q102 0 181.5 23.5t107.5 48.5l29 22q4 33 4 82q0 90 -17.5 167t-53 145.5t-105.5 108.5t-164 40q-137 0 -212 -86t-75 -225z" />
<glyph unicode=":" horiz-adv-x="374" d="M88 164q0 41 27.5 67.5t66.5 26.5q47 0 77 -25.5t30 -73.5q0 -37 -28 -62q-30 -26 -71 -25q-47 0 -74.5 25.5t-27.5 66.5zM88 930q0 41 27.5 67.5t66.5 26.5q47 0 77 -25.5t30 -73.5q0 -36 -28 -61q-30 -27 -71 -26q-47 0 -74.5 25.5t-27.5 66.5z" />
<glyph unicode=";" horiz-adv-x="374" d="M61 -182q84 143 84 243q0 39 -10 82t-20 68l-11 22l168 72q16 -53 17 -133q0 -109 -41 -202t-121 -197zM88 930q0 41 27.5 67.5t66.5 26.5q47 0 77 -25.5t30 -73.5q0 -36 -28 -61q-30 -27 -71 -26q-47 0 -74.5 25.5t-27.5 66.5z" />
<glyph unicode="&#x37e;" horiz-adv-x="374" d="M61 -182q84 143 84 243q0 39 -10 82t-20 68l-11 22l168 72q16 -53 17 -133q0 -109 -41 -202t-121 -197zM88 930q0 41 27.5 67.5t66.5 26.5q47 0 77 -25.5t30 -73.5q0 -36 -28 -61q-30 -27 -71 -26q-47 0 -74.5 25.5t-27.5 66.5z" />
<glyph unicode="&#x3c;" horiz-adv-x="1161" d="M123 647v139l917 512v-188l-708 -393l708 -385v-197z" />
<glyph unicode="=" horiz-adv-x="1161" d="M106 467v160h924v-160h-924zM106 823v158h924v-158h-924z" />
<glyph unicode="&#x3e;" horiz-adv-x="1161" d="M121 135v197l706 385l-706 393v188l915 -512v-139z" />
<glyph unicode="?" horiz-adv-x="921" d="M25 1239l41 162q82 59 286 59q207 0 336 -95t129 -296q0 -88 -40 -158.5t-99.5 -114.5t-118.5 -80t-106 -73t-58 -78q-8 -41 -8 -78l8 -69l-125 -43q-20 82 -20 166q0 61 12 98q16 61 63.5 109.5t99.5 78.5l102 63q50 32 84 80t34 111q0 117 -84 172.5t-205 55.5 q-82 0 -182 -17.5t-149 -52.5zM266 80q0 39 26.5 65.5t63.5 26.5q43 0 73 -24.5t30 -67.5q0 -37 -30 -61.5t-69 -24.5q-43 0 -68.5 23.5t-25.5 62.5z" />
<glyph unicode="@" horiz-adv-x="1660" d="M74 467q0 348 211 582.5t559 234.5q319 0 554.5 -205t235.5 -518q0 -143 -57 -283.5t-145 -226.5q-127 -123 -261 -123q-96 0 -157.5 48.5t-61.5 142.5q0 37 9 82l49 213q-4 -16 -14.5 -43t-47.5 -95.5t-78 -121t-108.5 -95.5t-140.5 -43q-92 0 -149.5 55.5t-79 130 t-21.5 167.5q0 147 59 290.5t179 246t270 102.5q72 0 130 -29t83 -59l22 -29l12 49q12 47 64 47h76l-166 -747q-14 -55 -15 -99q0 -61 29 -88.5t88 -27.5q82 0 162 86q72 72 117 190.5t45 251.5q0 299 -195.5 475t-482.5 176q-295 0 -489.5 -216t-194.5 -515 q0 -315 211 -507.5t530 -192.5q31 0 49 2l7 -76q-63 -12 -103 -12q-346 0 -565 217t-219 563zM518 379q0 -55 10.5 -106.5t46 -100.5t91.5 -49q82 0 170 110.5t149.5 245.5t93.5 262l15 54q-6 12 -17.5 31.5t-60.5 51t-111 31.5q-119 0 -210 -89t-134 -207.5t-43 -233.5z " />
<glyph unicode="A" horiz-adv-x="1183" d="M29 0l465 1450h200l467 -1450h-180l-94 307h-594l-98 -307h-166zM344 459h496l-246 815h-2z" />
<glyph unicode="B" horiz-adv-x="1204" d="M143 0v1448h445q199 0 305 -59q66 -37 112 -111t46 -174q0 -133 -50 -217q-61 -92 -188 -125q143 -31 203 -88q96 -94 96 -240q0 -209 -111 -317q-53 -51 -135 -79t-142 -33t-151 -5h-430zM307 158h266q74 0 107 1t95.5 18.5t96.5 51.5q66 66 66 189q0 111 -57 172 q-47 49 -120 62.5t-188 13.5h-266v-508zM307 819h281q33 0 62.5 4t90 23.5t96 75t35.5 139.5q0 125 -79 192q-53 43 -205 43h-281v-477z" />
<glyph unicode="C" horiz-adv-x="1136" d="M121 719q0 70 10 150.5t63.5 210.5t141.5 218q168 162 434 162q68 0 126 -13t83 -28l25 -14l36 -158q-119 63 -286 64q-197 0 -324 -146q-133 -158 -133 -442q0 -160 41 -286t113 -191q113 -102 321 -103q61 0 140 22.5t121 42t52 25.5l-57 -188q-12 -8 -34.5 -18.5 t-106.5 -30t-185 -19.5q-225 0 -385 146q-196 178 -196 596z" />
<glyph unicode="D" horiz-adv-x="1296" d="M143 0v1448h445q279 0 422 -152q176 -186 176 -567q0 -391 -193 -575q-156 -154 -405 -154h-445zM309 156h287q207 0 309.5 155.5t102.5 425.5q0 119 -20.5 215.5t-65.5 175t-127 123.5t-191 45h-295v-1140z" />
<glyph unicode="E" horiz-adv-x="1005" d="M143 0v1448h760l37 -154h-631v-467h553v-161h-553v-508h654l-50 -158h-770z" />
<glyph unicode="F" horiz-adv-x="974" d="M141 0v1448h760l37 -154h-631v-467h553v-161h-553v-666h-166z" />
<glyph unicode="G" horiz-adv-x="1255" d="M119 719q0 377 233 586q173 159 442 159h3q86 0 155.5 -13t98.5 -28l24 -14l37 -160q-121 63 -295 64q-236 0 -371 -146q-150 -158 -149 -444q0 -330 164 -477q111 -102 321 -103q61 0 109.5 5.5t64.5 9.5l17 6v454h-211v154h377v-741q-82 -23 -174 -37q-84 -12 -201 -12 q-272 0 -434 145q-117 109 -164 275.5t-47 316.5z" />
<glyph unicode="H" horiz-adv-x="1273" d="M143 0v1448h166v-600h668v600h166v-1448h-166v690h-668v-690h-166z" />
<glyph unicode="I" horiz-adv-x="442" d="M141 0v1448h166v-1448h-166z" />
<glyph unicode="J" horiz-adv-x="892" d="M2 170q113 -68 250 -68q135 0 199 107q23 41 34 105.5t12 96t1 113.5v924h168v-924q0 -203 -29 -302t-105 -173q-96 -94 -286 -94q-59 0 -111.5 13.5t-75.5 27.5l-22 14z" />
<glyph unicode="K" horiz-adv-x="1153" d="M141 0v1448h166v-655l627 655h213l-651 -676l659 -772h-209l-639 756v-756h-166z" />
<glyph unicode="L" horiz-adv-x="913" d="M141 0v1448h166v-1294h608l-36 -154h-738z" />
<glyph unicode="M" horiz-adv-x="1495" d="M141 0v1448h160l440 -498l455 498h166v-1448h-164v1225l-457 -510l-434 489v-1204h-166z" />
<glyph unicode="N" horiz-adv-x="1286" d="M141 0v1448h166l682 -1147v1147h166v-1448h-170l-678 1151v-1151h-166z" />
<glyph unicode="O" horiz-adv-x="1396" d="M123 743q0 158 30.5 285t98 228.5t185.5 157.5t276 56q579 0 579 -738q0 -220 -56 -383t-189.5 -265t-333.5 -102q-139 0 -245 42t-171.5 109.5t-105 167.5t-54 206.5t-14.5 235.5zM301 729q0 -299 92 -446.5t314 -147.5q104 0 180 35t120 88t69.5 133t32.5 157t7 173 q0 100 -6 176t-31.5 160t-69.5 138t-121 89t-181.5 35t-180 -33t-117.5 -83t-68 -132t-33 -160t-7 -182z" />
<glyph unicode="P" horiz-adv-x="1148" d="M143 0v1448h441q473 0 473 -490q0 -246 -129 -362q-80 -78 -161 -100.5t-183 -22.5h-277v-473h-164zM307 627h281q143 0 223 92q72 88 72 237q0 92 -24.5 160t-57.5 101.5t-79 53t-75 22.5t-59 3h-281v-669z" />
<glyph unicode="Q" horiz-adv-x="1398" d="M121 741q0 158 30.5 285t99 228.5t185.5 157.5t277 56q127 0 227 -36.5t164.5 -101t106.5 -155t60.5 -191.5t18.5 -220q0 -330 -125 -539t-372 -217q143 -59 235 -84q90 -27 197 -35l-60 -155q-41 8 -108.5 26.5t-240.5 80t-300 134.5q-217 123 -306 309.5t-89 456.5z M297 727q0 -289 106.5 -441.5t309.5 -154.5q123 0 207 46t124.5 135t55 183.5t14.5 223.5q0 92 -5 163.5t-28.5 156.5t-65.5 142.5t-118 95.5t-180 38q-111 0 -189.5 -32t-123 -82t-69 -133t-31.5 -157.5t-7 -183.5z" />
<glyph unicode="R" horiz-adv-x="1146" d="M143 0v1448h443q221 0 346 -108.5t125 -378.5q0 -117 -37 -208t-93.5 -140.5t-91 -72t-67.5 -30.5l330 -510h-191l-295 469h-305v-469h-164zM307 627h281q18 0 41.5 3t73 20.5t85 49t65.5 98t30 159t-24.5 160t-57.5 101t-79 53t-75 22.5t-59 3h-281v-669z" />
<glyph unicode="S" horiz-adv-x="1079" d="M106 199q137 -66 340 -66q74 0 132.5 10.5t114 36t86 78.5t30.5 129q0 102 -88 178q-53 43 -173 94.5t-224.5 105.5t-149.5 126q-51 82 -51 199q0 174 130 272t312 98q98 0 176 -14t107 -31l26 -14l37 -162q-115 70 -301 70q-145 0 -219 -43q-47 -27 -72.5 -75t-25.5 -95 q0 -82 63 -138q49 -45 153.5 -91t212 -100t171.5 -120q92 -96 92 -233q0 -432 -518 -432q-109 0 -190.5 16t-108.5 31l-29 16z" />
<glyph unicode="T" horiz-adv-x="909" d="M10 1292l33 154h864l-37 -154h-321v-1292h-166v1292h-373z" />
<glyph unicode="U" horiz-adv-x="1263" d="M133 541v907h170v-907q0 -178 76 -296t256 -118q336 0 336 414v907h170v-907q0 -182 -39 -275q-61 -145 -183 -218t-288 -73q-162 0 -283 74t-174 217q-41 117 -41 275z" />
<glyph unicode="V" horiz-adv-x="1146" d="M8 1448h178l389 -1260l398 1260h168l-465 -1448h-203z" />
<glyph unicode="W" horiz-adv-x="1617" d="M8 1448h174l269 -1245l270 1245h174l268 -1237l275 1237h168l-340 -1448h-203l-254 1174l-258 -1174h-203z" />
<glyph unicode="X" horiz-adv-x="1146" d="M8 0l463 754l-463 694h191l372 -565l379 565h189l-477 -703l479 -745h-197l-379 612l-368 -612h-189z" />
<glyph unicode="Y" horiz-adv-x="1146" d="M8 1448h180l383 -655l387 655h181l-488 -795v-653h-166v659z" />
<glyph unicode="Z" horiz-adv-x="935" d="M-29 0l676 1292h-637l33 156h864l-674 -1288h699l-39 -160h-922z" />
<glyph unicode="[" horiz-adv-x="491" d="M66 -244v1790h333v-119h-166v-1546h166v-125h-333z" />
<glyph unicode="\" horiz-adv-x="421" d="M-41 1505h102l365 -1554h-100z" />
<glyph unicode="]" horiz-adv-x="491" d="M100 -119h166v1546h-166v119h334v-1790h-334v125z" />
<glyph unicode="^" horiz-adv-x="927" d="M49 729l350 719h125l355 -723h-129l-285 578l-291 -574h-125z" />
<glyph unicode="_" horiz-adv-x="987" d="M0 -266h1001v-88h-1001v88z" />
<glyph unicode="`" d="M336 1352l72 100l233 -180v-94z" />
<glyph unicode="a" horiz-adv-x="927" d="M61 301q0 102 56 180q117 178 426 178q39 0 76.5 -3t56.5 -7l18 -2v64q0 47 -1 67.5t-12 54t-32 58.5q-60 67 -211 67h-4q-172 0 -270 -86l26 154q86 63 273 64q203 0 295 -97q49 -53 65.5 -113.5t16.5 -168.5v-711h-86q-57 0 -58 57v70q-100 -141 -309 -141 q-164 0 -245 89t-81 226zM221 313q0 -100 62.5 -150t160.5 -50q41 0 82 10q74 23 120 68t46 108v229q-61 12 -135 13q-287 0 -330 -170q-6 -25 -6 -58z" />
<glyph unicode="b" horiz-adv-x="991" d="M123 0v1450h147v-475q2 4 8.5 13t30 28.5t51 35t72.5 29t96 13.5q168 0 273 -101q143 -141 143 -444q0 -139 -42 -264t-138 -213t-227 -88q-152 0 -275 118v-102h-139zM268 215q127 -84 242 -84q276 0 276 447q0 104 -23.5 184t-90 138t-174.5 58q-72 0 -120 -25.5 t-70.5 -68.5t-31 -82t-8.5 -82v-485z" />
<glyph unicode="c" horiz-adv-x="864" d="M59 530q0 72 12.5 143.5t47.5 148.5t86 134.5t134 95.5t189 38q86 0 150.5 -19.5t87.5 -40.5l22 -18l23 -148q-8 10 -28.5 25.5t-86 41t-135.5 25.5q-338 0 -338 -428q0 -180 84 -289q82 -108 256 -108h6q74 2 140.5 27.5t97.5 52.5l29 25l-25 -170q-123 -78 -287 -78 q-147 0 -241 57q-104 61 -164 189t-60 296z" />
<glyph unicode="d" horiz-adv-x="997" d="M59 530q0 61 8.5 126t36 145t71.5 141.5t121 103t179 41.5q90 0 157.5 -28.5t86.5 -54.5l22 -29v475h146v-1450h-137v102q-122 -116 -274 -116h-3q-215 0 -314.5 150t-99.5 394zM223 547q0 -424 277 -424q82 0 139 31q27 14 52.5 35.5t37.5 33.5l12 15v462q0 121 -61 189 q-66 72 -191 72q-266 0 -266 -414z" />
<glyph unicode="e" horiz-adv-x="968" d="M59 530.5q0 63.5 7.5 127t36 145.5t73.5 143.5t130 103.5t196 42q82 0 147.5 -24t108.5 -60.5t73.5 -90t47 -101.5t25.5 -104.5t11.5 -92t2.5 -72.5l-3 -58h-692q-2 -18 -2 -32q0 -147 92 -236q98 -92 275 -92q94 0 168.5 23.5t103.5 48.5l29 20l-23 -153 q-10 -8 -33.5 -21.5t-104.5 -35t-167 -21.5q-135 0 -232.5 42t-147.5 99t-78.5 139t-36 139.5t-7.5 121zM225 612h535q0 86 -22.5 161t-85 133.5t-158.5 58.5q-94 0 -158 -55.5t-87.5 -132.5t-23.5 -165z" />
<glyph unicode="f" horiz-adv-x="540" d="M8 942l33 121h127v127q0 121 65.5 194.5t182.5 73.5q31 0 57.5 -7t36.5 -15l8 -6l14 -138q-35 33 -108 33q-49 0 -81 -32.5t-32 -88.5v-141h213l-26 -121h-185v-942h-145v942h-160z" />
<glyph unicode="g" horiz-adv-x="933" d="M57 -102q0 63 28 114t54 70l29 20q-59 20 -85 56.5t-26 97.5q0 70 46.5 116t93.5 52l45 10l-16 10q-9 6 -32.5 32t-43 55.5t-35 81t-15.5 106.5q0 109 33 186.5t85 114.5t104.5 54.5t107.5 17.5q61 0 111.5 -13.5t80 -31t51 -36t29.5 -32.5l9 -12q2 43 18 66.5t30.5 26.5 t39.5 3h61v-344q0 -166 -96 -270.5t-287 -104.5h-115q-80 0 -119.5 -12.5t-39.5 -55.5q0 -73 189 -73h5q20 0 53 1t44 1q397 0 397 -279q0 -154 -121 -227.5t-289 -73.5q-207 0 -315.5 77t-108.5 196zM195 -82q0 -76 77.5 -121t208.5 -45q100 0 182 41t82 119 q-4 152 -264 154q-14 0 -45 1t-47 1l-113 -2q-8 -6 -22 -18.5t-36.5 -51.5t-22.5 -78zM242 717q0 -111 60 -182.5t163 -71.5q123 0 187.5 68.5t64.5 186.5t-65.5 184.5t-184.5 66.5q-113 0 -169 -66.5t-56 -185.5z" />
<glyph unicode="h" horiz-adv-x="995" d="M123 0v1450h147v-516q14 45 89 101.5t200 56.5q203 0 287 -127q61 -90 61 -279v-686h-145v682q0 66 -6 106.5t-27.5 85t-71 66t-129.5 21.5q-111 0 -170 -54q-88 -80 -88 -243v-664h-147z" />
<glyph unicode="i" horiz-adv-x="354" d="M88 1337q0 39 26.5 59.5t65.5 20.5q37 0 63.5 -20.5t26.5 -53.5q0 -41 -25.5 -63.5t-64.5 -22.5q-41 0 -67 21q-25 19 -25 59zM106 0v1063h148v-1063h-148z" />
<glyph unicode="j" horiz-adv-x="366" d="M-113 -182q63 -25 127 -25q100 0 101 121v1149h147v-1139q0 -268 -221 -268q-31 0 -66.5 7t-54.5 15l-20 7zM96 1337q0 39 27 59.5t65 20.5q35 0 61.5 -20.5t26.5 -53.5q0 -41 -25.5 -63.5t-62.5 -22.5q-41 0 -67 21q-25 19 -25 59z" />
<glyph unicode="k" horiz-adv-x="892" d="M123 0v1450h147v-803l420 416h197l-455 -434l510 -629h-178l-494 616v-616h-147z" />
<glyph unicode="l" horiz-adv-x="393" d="M123 0v1450h147v-1450h-147z" />
<glyph unicode="m" horiz-adv-x="1540" d="M106 0v1063h148v-129q25 57 94.5 107.5t194.5 50.5q106 0 176 -48q35 -25 60.5 -55.5t33.5 -50.5l8 -21q4 8 11.5 19.5t35 41.5t59 53.5t90 42t124.5 18.5q104 0 176 -48q135 -88 135 -358v-686h-143v682q0 113 -17 160q-27 57 -53 75q-55 45 -156 46q-84 0 -143 -56 q-39 -37 -59.5 -83t-22.5 -78.5t-2 -81.5v-664h-143v682q0 100 -16.5 151.5t-55.5 83.5q-49 45 -156 46q-80 0 -143 -56q-88 -80 -88 -243v-664h-148z" />
<glyph unicode="n" horiz-adv-x="983" d="M106 0v1063h148v-129q16 45 90 101.5t199 56.5q203 0 286 -127q61 -90 62 -279v-686h-146v682q0 66 -6 106.5t-27.5 85t-70.5 66t-127 21.5q-111 0 -172 -54q-88 -80 -88 -243v-664h-148z" />
<glyph unicode="o" d="M59 524q0 117 23.5 213.5t74 177t139.5 126.5t210 46q434 0 434 -561q0 -236 -113.5 -388t-316.5 -152q-240 0 -345.5 139t-105.5 399zM215 518q0 -203 71.5 -303t223.5 -100q137 0 204.5 113.5t67.5 291.5q0 66 -4 117t-20.5 115.5t-44 107.5t-81.5 72t-126 29 q-88 0 -148.5 -36t-90 -103.5t-41 -139.5t-11.5 -164z" />
<glyph unicode="p" horiz-adv-x="995" d="M123 -340v1403h78q41 0 55 -11.5t14 -52.5v-65q29 59 90 104q68 55 185 56q168 0 264 -103q135 -141 135 -430q0 -143 -42 -267t-138 -212t-227 -88q-152 0 -275 119v-453h-139zM268 223q127 -82 242 -82q276 0 276 447q0 164 -63.5 267t-206.5 103q-127 0 -187.5 -75.5 t-60.5 -204.5v-455z" />
<glyph unicode="q" d="M57 561q0 96 18.5 182t59.5 169t121 132.5t190 49.5q119 0 197 -56q59 -41 90 -104v65q0 41 13.5 52.5t54.5 11.5h78v-1403h-138v453q-123 -117 -274 -117q-184 0 -297 164q-113 157 -113 401zM217 565q0 -141 37 -242.5t102 -144.5q57 -37 136 -37q53 0 112.5 20.5 t95.5 43.5l33 18v455q0 280 -262 280h-2q-78 0 -138.5 -47t-86.5 -127q-27 -88 -27 -219z" />
<glyph unicode="r" horiz-adv-x="645" d="M106 0v1063h148v-133q33 70 84 108q66 49 147 49q33 0 66 -9t47 -17l16 -6l25 -160q-68 51 -156 51q-137 -4 -194 -106q-35 -66 -35 -219v-621h-148z" />
<glyph unicode="s" horiz-adv-x="759" d="M37 236q18 -12 49 -30t112 -46.5t150 -28.5q209 0 209 166q0 61 -51 103t-125 72t-147.5 63.5t-125 102.5t-51.5 165q0 129 94.5 206.5t239.5 77.5q86 0 148.5 -18t81.5 -39l18 -18l25 -148q-10 10 -29 25.5t-86.5 40t-145.5 24.5q-188 0 -188 -157q0 -25 6 -44.5 t24.5 -37t30 -29.5t42.5 -28l42 -20q10 -5 48 -20.5t43 -17.5q129 -53 197.5 -120.5t68.5 -174.5q0 -143 -84 -225q-98 -92 -273 -92q-160 0 -299 78z" />
<glyph unicode="t" horiz-adv-x="550" d="M8 942l27 121h137l10 227l135 23v-250h232l-29 -121h-201v-692q0 -55 33 -89t82 -34q29 0 59.5 7t49.5 13l18 7l-12 -131q-70 -33 -141 -33q-117 0 -178.5 73.5t-61.5 196.5v682h-160z" />
<glyph unicode="u" horiz-adv-x="983" d="M100 377v686h148v-680q0 -111 20 -154q14 -33 47 -63q51 -51 152 -51q102 0 186 58t84 146v744h148v-1063h-82q-61 0 -62 57v70q-102 -141 -303 -141q-156 0 -241 82q-97 90 -97 309z" />
<glyph unicode="v" horiz-adv-x="823" d="M4 1063h143l269 -887l256 887h143l-326 -1063h-151z" />
<glyph unicode="w" horiz-adv-x="1243" d="M6 1063h146l204 -887l185 887h186l174 -887l197 887h143l-266 -1063h-152l-194 938l-199 -938h-154z" />
<glyph unicode="x" horiz-adv-x="823" d="M6 1063h158l254 -410l241 410h158l-321 -526l321 -537h-158l-243 418l-248 -418h-158l328 532z" />
<glyph unicode="y" horiz-adv-x="827" d="M10 1063h144l266 -887l258 887h141l-346 -1139q-20 -70 -27.5 -90t-29 -67.5t-41 -63.5t-54 -31.5t-79.5 -15.5q-33 0 -69 7t-54 15l-19 7l-14 133q66 -25 127 -25q80 0 111 121l22 86z" />
<glyph unicode="z" horiz-adv-x="794" d="M-25 0l578 940h-537l27 123h748l-580 -936h596l-37 -127h-795z" />
<glyph unicode="{" horiz-adv-x="512" d="M0 580v139q70 0 106.5 21.5t36.5 56.5v598q0 92 33 121.5t125 29.5h125l29 -88h-86q-76 0 -76 -86v-608q0 -45 -33 -65.5t-108 -32.5v-27q141 -20 141 -82v-627q0 -86 76 -86h86l-29 -90h-125q-92 0 -125 30t-33 122v583q0 25 -6 39.5t-38.5 31t-98.5 20.5z" />
<glyph unicode="|" horiz-adv-x="460" d="M174 -109v1639h84v-1639h-84z" />
<glyph unicode="}" horiz-adv-x="512" d="M59 -156h86q76 0 76 86v625q0 63 144 84v27q-78 10 -111 29.5t-33 66.5v610q0 86 -76 86h-84l25 88h129q92 0 124 -30.5t32 -120.5v-598q0 -35 37.5 -56.5t105.5 -21.5v-139q-49 -2 -80 -10.5t-44 -24t-16 -25.5t-3 -28v-586q0 -90 -32 -121t-124 -31h-129z" />
<glyph unicode="~" horiz-adv-x="927" d="M74 537q96 174 262 174q57 0 102 -24.5t69.5 -53.5t65.5 -53.5t92.5 -24.5t95.5 23.5t60 46.5l19 22l34 -24q-78 -195 -258 -195q-49 0 -90 24.5t-67.5 55.5t-70.5 55.5t-95 24.5q-96 0 -197 -90z" />
<glyph unicode="&#xa1;" horiz-adv-x="442" d="M131 1004q0 37 25.5 61.5t68.5 24.5q41 0 70 -25t29 -61q0 -43 -29 -68t-74 -25q-37 0 -63.5 26t-26.5 67zM141 -365v758l25 269l110 36l31 -305v-758h-166z" />
<glyph unicode="&#xa2;" horiz-adv-x="886" d="M59 729q0 102 20.5 188.5t52.5 140.5t71 97t77.5 64.5t70.5 34.5q33 14 55 18l18 4v199h147v-187q68 -4 122.5 -22.5t72.5 -36.5l22 -19l23 -147q-8 10 -27.5 25.5t-85 41t-137.5 25.5q-94 0 -161.5 -32.5t-104.5 -93t-54.5 -131.5t-17.5 -159q0 -182 79 -294.5 t257 -112.5q156 0 277 102l-25 -168q-113 -72 -240 -78v-219h-147v226q-6 0 -19.5 2t-51.5 14t-72.5 33.5t-76.5 62.5t-73 94.5t-51.5 138.5t-20.5 189z" />
<glyph unicode="&#xa3;" horiz-adv-x="1177" d="M190 109l50 16q31 10 109.5 49t140 82t110.5 112.5t49 143.5q0 82 -43 123h-385v102h303q-8 6 -22.5 15.5t-51 44t-64.5 73.5t-51.5 98.5t-23.5 121.5q0 172 106.5 271t282.5 99q84 0 141.5 -14t71.5 -31l17 -14l37 -162q-6 8 -20.5 21.5t-75 35t-144.5 21.5 q-117 0 -181.5 -59.5t-64.5 -176t103 -209.5l141 -135h287v-102h-228l7 -19q6 -18 12 -47.5t6 -52.5q0 -72 -27.5 -134.5t-68.5 -103t-81 -71.5t-67 -41l-28 -14q135 16 266 16q143 0 264 -12l-59 -156q-176 10 -254 10q-229 0 -484 -33z" />
<glyph unicode="&#xa4;" horiz-adv-x="1179" d="M33 569l24 107h117v43q0 45 4 78h-145l24 106h138q47 248 196 395q168 162 434 162q68 0 125.5 -13t83.5 -28l23 -14l39 -158q-119 63 -287 64q-197 0 -324 -146q-88 -102 -116 -262h628l-20 -106h-621q-4 -47 -4 -74q0 -8 1 -23.5t1 -23.5h600l-20 -107h-569 q29 -221 140 -323.5t322 -102.5q61 0 140.5 22.5t121 42t52.5 25.5l-58 -188q-12 -8 -34.5 -18.5t-106.5 -30t-184 -19.5q-225 0 -387 146q-154 143 -189 446h-149z" />
<glyph unicode="&#xa5;" horiz-adv-x="1177" d="M102 1448h187l299 -645l303 645h184l-385 -748h268v-96h-292v-155h292v-101h-292v-348h-164v348h-295v98h295v156h-295v96h276z" />
<glyph unicode="&#xa6;" horiz-adv-x="460" d="M174 -106v722h84v-722h-84zM174 807v723h84v-723h-84z" />
<glyph unicode="&#xa7;" horiz-adv-x="874" d="M2 621q0 72 25.5 127t61.5 84.5t73 50t61 26.5l27 4q-193 76 -193 250q0 135 89.5 223.5t277.5 88.5q82 0 154.5 -19.5t105.5 -40.5l31 -16l24 -172q-18 12 -46.5 29.5t-113.5 46t-161 28.5q-197 0 -197 -160q0 -63 61.5 -105t148.5 -73.5t176 -73.5t150.5 -132.5 t61.5 -225.5q0 -76 -25.5 -133t-61.5 -85t-71.5 -47.5t-60.5 -25.5l-27 -2q199 -78 199 -250q0 -162 -105.5 -236.5t-248.5 -74.5q-90 0 -166 19.5t-107 40.5l-28 18l-25 170q18 -12 48 -28.5t114 -45t160 -28.5q199 0 198 157q0 63 -63.5 104.5t-152.5 73t-179 74.5 t-152.5 133.5t-62.5 225.5zM160 610q0 -127 82 -185t192 -58q96 0 163 54t67 150q0 72 -33 124.5t-81 77t-90 33.5t-79 9q-96 0 -158.5 -55.5t-62.5 -149.5z" />
<glyph unicode="&#xa8;" d="M260 1295q0 38 26.5 64.5t63.5 26.5q43 0 73 -24.5t30 -65.5q0 -39 -29 -63.5t-68 -24.5q-43 0 -69.5 24.5t-26.5 62.5zM565 1295q0 38 26.5 64.5t65.5 26.5q43 0 73 -24.5t30 -65.5q0 -39 -29 -63.5t-67 -24.5q-45 0 -72 24.5t-27 62.5z" />
<glyph unicode="&#xa9;" horiz-adv-x="1656" d="M102 732.5q0 322.5 228.5 549.5t551 227t550 -227t227.5 -549.5t-227.5 -551t-550 -228.5t-551 228.5t-228.5 551zM147 733q0 -305 215.5 -519t518.5 -214t518 214t215 519t-215 519t-518 214t-518.5 -214t-215.5 -519zM389 725q0 223 142.5 373.5t375.5 150.5 q188 0 310 -92l-50 -70q-111 74 -260 74q-195 0 -309.5 -118.5t-114.5 -313.5q0 -184 115 -312t309 -128q150 0 267 76l43 -68q-131 -86 -310 -86q-236 0 -377 148.5t-141 365.5z" />
<glyph unicode="&#xaa;" horiz-adv-x="651" d="M63 588v98h494v-98h-494zM66 979q0 61 34 111q76 106 269 106l94 -8v37q0 80 -29 108q-41 41 -135 41q-106 0 -170 -51l18 92q53 37 170 37q127 0 185 -55q31 -35 41 -70t10 -102v-426h-53q-35 0 -35 35v40q-63 -84 -195 -83q-102 0 -153 53t-51 135zM166 987 q0 -61 39 -92t100 -31q16 0 53 8q45 12 75 41t30 66v137q-41 6 -88 6q-180 0 -205 -100q-4 -31 -4 -35z" />
<glyph unicode="&#xab;" horiz-adv-x="815" d="M4 666l217 327l148 -24l-179 -303l179 -297l-148 -23zM397 666l217 327l148 -24l-178 -303l178 -297l-148 -23z" />
<glyph unicode="&#xac;" horiz-adv-x="677" d="M-80 324l412 544h123v-544h129v-91h-129v-233h-107v233h-395zM27 324h321v434z" />
<glyph unicode="&#xad;" horiz-adv-x="802" d="M57 483v160h688v-160h-688z" />
<glyph unicode="&#xae;" horiz-adv-x="761" d="M29 1100q0 154 108.5 261t260 107t259 -107.5t107.5 -260.5q0 -152 -107.5 -261.5t-259 -109.5t-260 109.5t-108.5 261.5zM53 1100q0 -141 101.5 -243.5t243 -102.5t240.5 102t99 243.5t-99 244t-241 102.5q-143 0 -243.5 -101.5t-100.5 -244.5zM221 903v397h221 q156 0 156 -118q0 -59 -44 -92q-37 -28 -78 -28q-8 0 -15 1l123 -160h-45l-119 160h-164v-160h-35zM256 1092h195q109 0 108 90q0 86 -117 86h-186v-176z" />
<glyph unicode="&#xaf;" horiz-adv-x="856" d="M152 1343v74h555v-74h-555z" />
<glyph unicode="&#x2c9;" horiz-adv-x="856" d="M152 1343v74h555v-74h-555z" />
<glyph unicode="&#xb0;" horiz-adv-x="546" d="M76 1272q0 82 58.5 139t137.5 57q84 0 140.5 -57t56.5 -139q0 -80 -56.5 -138.5t-140.5 -58.5q-80 0 -138 58.5t-58 138.5zM123 1270q0 -61 44 -104.5t104.5 -43.5t103.5 43t43 105q0 63 -43 107t-103.5 44t-104.5 -44t-44 -107z" />
<glyph unicode="&#xb1;" horiz-adv-x="1161" d="M113 14v158h931v-158h-931zM115 680v158h387v374h162v-374h376v-158h-376v-391h-162v391h-387z" />
<glyph unicode="&#xb2;" horiz-adv-x="698" d="M66 686l315 236q152 117 151 258q0 203 -237 202q-63 0 -114.5 -15t-69.5 -28l-19 -14l27 98q70 47 217 47q129 0 219 -74.5t90 -203.5q0 -55 -15.5 -104.5t-33.5 -81t-53 -65.5t-53 -47l-54 -40l-250 -174h461l-33 -94h-538z" />
<glyph unicode="&#xb3;" horiz-adv-x="657" d="M57 717q59 -55 213 -55q250 0 250 165q0 170 -293 170l-73 -4l24 86q16 -2 43 -2q43 0 84 6.5t90 20.5t80 50t31 87q0 63 -56.5 101t-162.5 38q-160 0 -221 -57l24 98q76 47 213 47q125 0 218 -53t93 -170q0 -86 -55 -137t-156 -66q8 0 25.5 -2t55.5 -14t69 -32.5 t55.5 -63.5t24.5 -101q0 -92 -53.5 -152.5t-125 -82t-161.5 -23.5q-63 0 -116.5 12.5t-74.5 24.5l-22 10z" />
<glyph unicode="&#xb4;" d="M340 1178v94l233 180l72 -100z" />
<glyph unicode="&#xb5;" horiz-adv-x="657" d="M104 717q59 -53 215 -53q109 0 172.5 49t63.5 139q0 178 -193 190q-20 1 -39 2q-40 0 -82 -6q-62 -8 -96 -18l-30 -10l30 442h443v-90h-344l-17 -246q55 12 146 12q127 0 210 -67.5t83 -212.5q0 -135 -97.5 -205t-220.5 -72q-39 0 -77 5.5t-62.5 12.5t-42.5 14l-29 11 l-10 4z" />
<glyph unicode="&#x3bc;" horiz-adv-x="657" d="M104 717q59 -53 215 -53q109 0 172.5 49t63.5 139q0 178 -193 190q-20 1 -39 2q-40 0 -82 -6q-62 -8 -96 -18l-30 -10l30 442h443v-90h-344l-17 -246q55 12 146 12q127 0 210 -67.5t83 -212.5q0 -135 -97.5 -205t-220.5 -72q-39 0 -77 5.5t-62.5 12.5t-42.5 14l-29 11 l-10 4z" />
<glyph unicode="&#xb6;" horiz-adv-x="983" d="M57 969q0 96 24.5 175t60.5 127t88.5 84t95.5 52t96 26.5t75.5 11.5t47.5 1h266v-1774h-96v1686h-164v-1682h-94v822q-76 4 -141.5 28.5t-127 75.5t-96.5 145.5t-35 221.5z" />
<glyph unicode="&#xb7;" horiz-adv-x="1161" d="M485 725q0 37 27 63.5t63 26.5q43 0 73 -24.5t30 -65.5q0 -37 -30 -61.5t-68 -24.5q-43 0 -69 23.5t-26 62.5z" />
<glyph unicode="&#x2219;" horiz-adv-x="1161" d="M485 725q0 37 27 63.5t63 26.5q43 0 73 -24.5t30 -65.5q0 -37 -30 -61.5t-68 -24.5q-43 0 -69 23.5t-26 62.5z" />
<glyph unicode="&#xb8;" horiz-adv-x="864" d="M289 -328l14 90q72 -43 168 -43q59 2 96 22.5t37 53.5q0 55 -84 55l-67 -10l-31 68l59 82h45l-6 -62q2 -2 23.5 0t52.5 -5t62.5 -19.5t53 -44t21.5 -74.5q0 -74 -76.5 -119t-183.5 -45q-51 0 -97 12.5t-65 24.5z" />
<glyph unicode="&#xb9;" horiz-adv-x="401" d="M29 1296l22 99l264 67v-876h-108v757z" />
<glyph unicode="&#xba;" horiz-adv-x="643" d="M37 1116q0 145 67.5 240.5t214.5 95.5q274 0 275 -334q0 -141 -71.5 -232t-200.5 -91q-285 -1 -285 321zM80 588v102h469v-102h-469zM135 1112q0 -242 187 -242q88 0 130 69t42 175q0 264 -175 264q-184 0 -184 -266z" />
<glyph unicode="&#xbb;" horiz-adv-x="815" d="M61 969l146 24l219 -327l-215 -320l-148 23l177 297zM455 969l145 24l219 -327l-215 -320l-147 23l176 297z" />
<glyph unicode="&#xbc;" horiz-adv-x="1228" d="M29 1296l22 99l264 67v-876h-108v757zM121 -25l694 1557h131l-698 -1557h-127zM563 324l412 544h123v-544h129v-91h-129v-233h-107v233h-395zM670 324h321v434z" />
<glyph unicode="&#xbd;" horiz-adv-x="1239" d="M29 1296l22 99l264 67v-876h-108v757zM121 -25l694 1557h131l-698 -1557h-127zM655 100q197 141 318 236q152 117 151 258q0 106 -64.5 154.5t-172.5 48.5q-66 0 -116 -15.5t-66 -27.5l-21 -15l27 99q70 47 217 47q129 0 219 -75t90 -204q0 -55 -16.5 -104t-34 -81 t-52 -67t-52.5 -47l-54 -39l-252 -174h461l-33 -94h-538z" />
<glyph unicode="&#xbe;" horiz-adv-x="1507" d="M57 717q59 -55 213 -55q250 0 250 165q0 170 -293 170l-73 -4l24 86q16 -2 43 -2q43 0 84 6.5t90 20.5t80 50t31 87q0 63 -56.5 101t-162.5 38q-160 0 -221 -57l24 98q76 47 213 47q125 0 218 -53t93 -170q0 -86 -55 -137t-156 -66q8 0 25.5 -2t55.5 -14t69 -32.5 t55.5 -63.5t24.5 -101q0 -92 -53.5 -152.5t-125 -82t-161.5 -23.5q-63 0 -116.5 12.5t-74.5 24.5l-22 10zM399 -25l697 1557h129l-699 -1557h-127zM842 324l411 544h123v-544h129v-91h-129v-233h-106v233h-396zM950 324h320v434z" />
<glyph unicode="&#xbf;" horiz-adv-x="921" d="M61 16q0 88 40 159t98.5 115t118 80t106.5 72.5t57 77.5q10 39 11 78l-9 68l127 45q18 -82 19 -166q0 -51 -13 -99q-16 -61 -63 -109t-100 -79l-104 -62q-50 -32 -84 -80t-34 -112q0 -117 85 -172t206 -55q80 0 181.5 17.5t148.5 51.5l-39 -163q-82 -57 -287 -58 q-207 0 -336 95t-129 296zM420 1006q0 37 28.5 61.5t67.5 24.5q45 0 71.5 -24t26.5 -62.5t-26.5 -65.5t-65.5 -27q-43 0 -72.5 25t-29.5 68z" />
<glyph unicode="&#xc0;" horiz-adv-x="1183" d="M29 0l465 1450h200l467 -1450h-180l-94 307h-594l-98 -307h-166zM344 459h496l-246 815h-2zM434 1745l72 100l235 -180v-94z" />
<glyph unicode="&#xc1;" horiz-adv-x="1183" d="M29 0l465 1450h200l467 -1450h-180l-94 307h-594l-98 -307h-166zM344 459h496l-246 815h-2zM446 1571v94l236 180l72 -100z" />
<glyph unicode="&#xc2;" horiz-adv-x="1183" d="M29 0l465 1450h200l467 -1450h-180l-94 307h-594l-98 -307h-166zM344 459h496l-246 815h-2zM418 1559v116l174 187l174 -187v-116l-174 149z" />
<glyph unicode="&#xc3;" horiz-adv-x="1183" d="M29 0l465 1450h200l467 -1450h-180l-94 307h-594l-98 -307h-166zM281 1583q74 139 200 139q72 0 142.5 -62.5t132.5 -62.5q41 0 74.5 19.5t48.5 36.5l14 18l29 -18q-57 -158 -195 -158q-61 0 -134 64.5t-134 64.5q-82 0 -160 -74zM344 459h496l-246 815h-2z" />
<glyph unicode="&#xc4;" horiz-adv-x="1183" d="M29 0l465 1450h200l467 -1450h-180l-94 307h-594l-98 -307h-166zM344 459h496l-246 815h-2zM344 1626q0 37 26.5 63.5t63.5 26.5q43 0 73 -24.5t30 -65.5q0 -37 -30 -61.5t-69 -24.5q-43 0 -68.5 24.5t-25.5 61.5zM651 1626q0 37 27 63.5t63 26.5q43 0 73 -24.5t30 -65.5 q0 -37 -30 -61.5t-69 -24.5q-43 0 -68.5 24.5t-25.5 61.5z" />
<glyph unicode="&#xc5;" horiz-adv-x="1183" d="M29 0l465 1450h200l467 -1450h-180l-94 307h-594l-98 -307h-166zM344 459h496l-246 815h-2zM434 1673q0 63 46 108.5t109.5 45.5t108.5 -45t45 -109q0 -66 -45 -111.5t-108 -45.5q-66 0 -111 45.5t-45 111.5zM487 1673q0 -43 30 -72.5t71 -29.5t70.5 30.5t29.5 71.5 t-29.5 71t-70.5 30t-71 -30t-30 -71z" />
<glyph unicode="&#xc6;" horiz-adv-x="1830" d="M23 0l851 1448h861l37 -154h-631v-467h555v-161h-555v-510h653l-49 -156h-768v307h-602l-178 -307h-174zM467 459h508v837h-25z" />
<glyph unicode="&#xc7;" horiz-adv-x="1136" d="M121 719q0 70 10 150.5t63.5 210.5t141.5 218q168 162 434 162q68 0 126 -13t83 -28l25 -14l36 -158q-119 63 -286 64q-197 0 -324 -146q-133 -158 -133 -442q0 -160 41 -286t113 -191q113 -102 321 -103q61 0 140 22.5t121 42t52 25.5l-57 -188q-74 -37 -145 -51 q-88 -16 -176 -17l-5 -53h25q14 0 51 -7t66.5 -21.5t53.5 -45t24 -75.5q0 -82 -84 -126t-187 -44q-61 0 -109 13t-67 24l-14 14l14 94q70 -43 168 -43q61 0 101 21.5t40 56.5q0 55 -76 55h-6l-71 -10l-31 70l62 80q-205 14 -345 143q-196 182 -196 596z" />
<glyph unicode="&#xc8;" horiz-adv-x="1005" d="M143 0v1448h760l37 -154h-631v-467h553v-161h-553v-508h654l-50 -158h-770zM383 1745l72 100l233 -180v-94z" />
<glyph unicode="&#xc9;" horiz-adv-x="1005" d="M143 0v1448h760l37 -154h-631v-467h553v-161h-553v-508h654l-50 -158h-770zM420 1571v94l235 180l70 -100z" />
<glyph unicode="&#xca;" horiz-adv-x="1005" d="M143 0v1448h760l37 -154h-631v-467h553v-161h-553v-508h654l-50 -158h-770zM365 1559v116l172 187l176 -187v-116l-176 149z" />
<glyph unicode="&#xcb;" horiz-adv-x="1005" d="M143 0v1448h760l37 -154h-631v-467h553v-161h-553v-508h654l-50 -158h-770zM283 1626q0 37 26.5 63.5t63.5 26.5q45 0 73.5 -24.5t28.5 -65.5q0 -37 -28.5 -61.5t-67.5 -24.5q-43 0 -69.5 24.5t-26.5 61.5zM590 1626q0 37 26.5 63.5t63.5 26.5q43 0 72.5 -24.5 t29.5 -65.5q0 -37 -28.5 -61.5t-67.5 -24.5q-43 0 -69.5 24.5t-26.5 61.5z" />
<glyph unicode="&#xcc;" horiz-adv-x="442" d="M63 1745l70 100l236 -180v-94zM141 0v1448h166v-1448h-166z" />
<glyph unicode="&#xcd;" horiz-adv-x="442" d="M80 1571v94l235 180l70 -100zM141 0v1448h166v-1448h-166z" />
<glyph unicode="&#xce;" horiz-adv-x="442" d="M41 1559v116l174 187l174 -187v-116l-174 149zM141 0v1448h166v-1448h-166z" />
<glyph unicode="&#xcf;" horiz-adv-x="442" d="M-25 1626q0 37 26 63.5t65 26.5q43 0 72.5 -24.5t29.5 -65.5q0 -37 -29.5 -61.5t-68.5 -24.5q-45 0 -70 24.5t-25 61.5zM141 0v1448h166v-1448h-166zM281 1626q0 37 26.5 63.5t63.5 26.5q45 0 73.5 -24.5t28.5 -65.5q0 -37 -28.5 -61.5t-69.5 -24.5q-43 0 -68.5 24.5 t-25.5 61.5z" />
<glyph unicode="&#xd0;" horiz-adv-x="1296" d="M51 647v158h92v643h445q279 0 422 -152q176 -186 176 -567q0 -391 -193 -575q-156 -154 -405 -154h-445v647h-92zM309 156h287q207 0 309.5 155.5t102.5 425.5q0 119 -20.5 215.5t-65.5 175t-127 123.5t-191 45h-295v-491h99v-158h-99v-491z" />
<glyph unicode="&#xd1;" horiz-adv-x="1286" d="M141 0v1448h166l682 -1147v1147h166v-1448h-170l-678 1151v-1151h-166zM324 1583q74 139 200 139q72 0 141.5 -62.5t131.5 -62.5q41 0 76.5 19.5t48.5 36.5l14 18l29 -18q-59 -158 -197 -158q-59 0 -131 64.5t-135 64.5q-82 0 -160 -74z" />
<glyph unicode="&#xd2;" horiz-adv-x="1396" d="M123 743q0 158 30.5 285t98 228.5t185.5 157.5t276 56q580 0 579 -741q0 -217 -56 -380t-189.5 -265t-333.5 -102q-139 0 -245 42t-171.5 109.5t-105 167.5t-54 206.5t-14.5 235.5zM301 729q0 -299 92 -446.5t314 -147.5q104 0 180 35t120 88t69.5 133t32.5 157t7 173 q0 100 -6 176t-31.5 160t-69.5 138t-121 89t-181.5 35t-180 -33t-117.5 -83t-68 -132t-33 -160t-7 -182zM494 1745l71 100l234 -180v-94z" />
<glyph unicode="&#xd3;" horiz-adv-x="1396" d="M123 743q0 158 30.5 285t98 228.5t185.5 157.5t276 56q580 0 579 -741q0 -217 -56 -380t-189.5 -265t-333.5 -102q-139 0 -245 42t-171.5 109.5t-105 167.5t-54 206.5t-14.5 235.5zM301 729q0 -299 92 -446.5t314 -147.5q104 0 180 35t120 88t69.5 133t32.5 157t7 173 q0 100 -6 176t-31.5 160t-69.5 138t-121 89t-181.5 35t-180 -33t-117.5 -83t-68 -132t-33 -160t-7 -182zM567 1571v94l236 180l69 -100z" />
<glyph unicode="&#xd4;" horiz-adv-x="1396" d="M123 743q0 158 30.5 285t98 228.5t185.5 157.5t276 56q580 0 579 -741q0 -217 -56 -380t-189.5 -265t-333.5 -102q-139 0 -245 42t-171.5 109.5t-105 167.5t-54 206.5t-14.5 235.5zM301 729q0 -299 92 -446.5t314 -147.5q104 0 180 35t120 88t69.5 133t32.5 157t7 173 q0 100 -6 176t-31.5 160t-69.5 138t-121 89t-181.5 35t-180 -33t-117.5 -83t-68 -132t-33 -160t-7 -182zM539 1559v116l174 187l174 -187v-116l-174 149z" />
<glyph unicode="&#xd5;" horiz-adv-x="1396" d="M123 743q0 158 30.5 285t98 228.5t185.5 157.5t276 56q580 0 579 -741q0 -217 -56 -380t-189.5 -265t-333.5 -102q-139 0 -244.5 42t-171.5 109.5t-105.5 167.5t-54 206.5t-14.5 235.5zM301 729q0 -299 92 -446.5t314 -147.5q104 0 180 35t120 88t69.5 133t32.5 157 t7 173q0 100 -6 176t-31.5 160t-69.5 138t-121 89t-181.5 35t-180 -33t-117.5 -83t-68 -132t-33 -160t-7 -182zM397 1583q78 139 203 139q66 0 138.5 -55t131.5 -55q41 0 76 17.5t49 37.5l13 19l30 -21q-61 -158 -194 -158q-61 0 -134 58.5t-137 58.5q-80 0 -157 -74z" />
<glyph unicode="&#xd6;" horiz-adv-x="1396" d="M123 743q0 158 30.5 285t98 228.5t185.5 157.5t276 56q580 0 579 -741q0 -217 -56 -380t-189.5 -265t-333.5 -102q-139 0 -245 42t-171.5 109.5t-105 167.5t-54 206.5t-14.5 235.5zM301 729q0 -299 92 -446.5t314 -147.5q104 0 180 35t120 88t69.5 133t32.5 157t7 173 q0 100 -6 176t-31.5 160t-69.5 138t-121 89t-181.5 35t-180 -33t-117.5 -83t-68 -132t-33 -160t-7 -182zM467 1626q0 37 25.5 63.5t64.5 26.5q45 0 73.5 -24.5t28.5 -65.5q0 -37 -28.5 -61.5t-67.5 -24.5q-45 0 -70.5 24.5t-25.5 61.5zM772 1626q0 37 26.5 63.5t63.5 26.5 q47 0 75 -24.5t28 -65.5q0 -37 -28 -61.5t-69 -24.5q-43 0 -69.5 24.5t-26.5 61.5z" />
<glyph unicode="&#xd7;" horiz-adv-x="1161" d="M195 453l272 272l-264 266l114 115l263 -266l270 266l111 -109l-269 -268l277 -278l-113 -115l-278 278l-273 -274z" />
<glyph unicode="&#xd8;" horiz-adv-x="1396" d="M37 -18l190 243q-104 182 -104 518q0 158 30.5 285t98 228.5t185.5 157.5t276 56q248 0 389 -133l102 133h94l-147 -188q141 -182 141 -553q0 -217 -56 -380t-189.5 -265t-333.5 -102q-293 0 -441 180l-141 -180h-94zM301 729q0 -221 47 -352l649 827q-98 115 -290 115 q-104 0 -180 -33t-118 -83t-68 -132t-33 -160t-7 -182zM381 303q96 -168 326 -168q104 0 180 35t120 88t69.5 133t32.5 157t7 173q0 287 -76 422z" />
<glyph unicode="&#xd9;" horiz-adv-x="1263" d="M133 541v907h170v-907q0 -178 76 -296t256 -118q336 0 336 414v907h170v-907q0 -182 -39 -275q-61 -145 -183 -218t-288 -73q-162 0 -283 74t-174 217q-41 117 -41 275zM459 1745l69 100l236 -180v-94z" />
<glyph unicode="&#xda;" horiz-adv-x="1263" d="M133 541v907h170v-907q0 -178 76 -296t256 -118q336 0 336 414v907h170v-907q0 -182 -39 -275q-61 -145 -183 -218t-288 -73q-162 0 -283 74t-174 217q-41 117 -41 275zM524 1571v94l238 180l69 -100z" />
<glyph unicode="&#xdb;" horiz-adv-x="1263" d="M133 541v907h170v-907q0 -178 76 -296t256 -118q336 0 336 414v907h170v-907q0 -182 -39 -275q-61 -145 -183 -218t-288 -73q-162 0 -283 74t-174 217q-41 117 -41 275zM461 1559v116l174 187l174 -187v-116l-174 149z" />
<glyph unicode="&#xdc;" horiz-adv-x="1263" d="M133 541v907h170v-907q0 -178 76 -296t256 -118q336 0 336 414v907h170v-907q0 -182 -39 -275q-61 -145 -183 -218t-288 -73q-162 0 -283 74t-174 217q-41 117 -41 275zM379 1626q0 37 26.5 63.5t63.5 26.5q47 0 74.5 -24.5t27.5 -65.5q0 -37 -27.5 -61.5t-68.5 -24.5 q-43 0 -69.5 24.5t-26.5 61.5zM686 1626q0 37 26.5 63.5t63.5 26.5q45 0 74 -24.5t29 -65.5q0 -37 -29 -61.5t-68 -24.5q-43 0 -69.5 24.5t-26.5 61.5z" />
<glyph unicode="&#xdd;" horiz-adv-x="1146" d="M8 1448h180l383 -655l387 655h181l-488 -795v-653h-166v659zM543 1571v94l235 180l72 -100z" />
<glyph unicode="&#xde;" horiz-adv-x="1148" d="M141 1448h166v-223h277q473 0 473 -490q0 -244 -129 -362q-80 -74 -162 -97.5t-182 -23.5h-277v-252h-164zM307 406h281q143 0 223 92q72 86 72 235q0 92 -24.5 160t-57.5 101.5t-79 53t-75 22.5t-59 3h-281v-667z" />
<glyph unicode="&#xdf;" horiz-adv-x="1126" d="M8 942l33 121h127v47q0 354 332 354q150 0 249 -67.5t99 -210.5q0 -76 -35 -123t-100 -92q-4 -4 -30 -18.5t-40 -26t-32.5 -29.5t-28 -43t-9.5 -51q0 -63 52.5 -106.5t126 -73t147.5 -64.5t126 -100.5t52 -161.5q0 -154 -103.5 -231.5t-260.5 -77.5q-84 0 -157 19.5 t-103 39.5l-35 19l-23 170q18 -12 47 -30t114 -46.5t159 -28.5q98 0 148 43t50 117q0 55 -35.5 95t-92 62.5t-120 53t-120 63.5t-92 93.5t-35.5 144.5q0 154 139 237q90 55 111 80q25 33 24 80q0 131 -203 131q-178 0 -178 -205v-1126h-143v942h-160z" />
<glyph unicode="&#xe0;" horiz-adv-x="927" d="M61 301q0 102 56 180q117 178 426 178q39 0 76.5 -3t56.5 -7l18 -2v64q0 47 -1 67.5t-12 54t-32 58.5q-61 68 -215 67q-172 0 -270 -86l26 154q86 63 273 64q203 0 295 -97q49 -53 65.5 -113.5t16.5 -168.5v-711h-86q-57 0 -58 57v70q-100 -141 -309 -141q-164 0 -245 89 t-81 226zM221 313q0 -100 62.5 -150t160.5 -50q41 0 82 10q74 23 120 68t46 108v229q-61 12 -135 13q-287 0 -330 -170q-6 -25 -6 -58zM336 1352l72 100l233 -180v-94z" />
<glyph unicode="&#xe1;" horiz-adv-x="927" d="M61 301q0 102 56 180q117 178 426 178q39 0 76.5 -3t56.5 -7l18 -2v64q0 47 -1 67.5t-12 54t-32 58.5q-61 68 -215 67q-172 0 -270 -86l26 154q86 63 273 64q203 0 295 -97q49 -53 65.5 -113.5t16.5 -168.5v-711h-86q-57 0 -58 57v70q-100 -141 -309 -141q-164 0 -245 89 t-81 226zM221 313q0 -100 62.5 -150t160.5 -50q41 0 82 10q74 23 120 68t46 108v229q-61 12 -135 13q-287 0 -330 -170q-6 -25 -6 -58zM340 1178v94l233 180l72 -100z" />
<glyph unicode="&#xe2;" horiz-adv-x="927" d="M61 301q0 102 56 180q117 178 426 178q39 0 76.5 -3t56.5 -7l18 -2v64q0 47 -1 67.5t-12 54t-32 58.5q-61 68 -215 67q-172 0 -270 -86l26 154q86 63 273 64q203 0 295 -97q49 -53 65.5 -113.5t16.5 -168.5v-711h-86q-57 0 -58 57v70q-100 -141 -309 -141q-164 0 -245 89 t-81 226zM221 313q0 -100 62.5 -150t160.5 -50q41 0 82 10q74 23 120 68t46 108v229q-61 12 -135 13q-287 0 -330 -170q-6 -25 -6 -58zM334 1186v114l176 189l172 -189v-114l-172 149z" />
<glyph unicode="&#xe3;" horiz-adv-x="927" d="M61 301q0 102 56 180q117 178 426 178q39 0 76.5 -3t56.5 -7l18 -2v64q0 47 -1 67.5t-12 54t-32 58.5q-61 68 -215 67q-172 0 -270 -86l26 154q86 63 273 64q203 0 295 -97q49 -53 65.5 -113.5t16.5 -168.5v-711h-86q-57 0 -58 57v70q-100 -141 -309 -141q-164 0 -245 89 t-81 226zM186 1333q76 141 203 142q70 0 140.5 -62.5t132.5 -62.5q41 0 74.5 17t49.5 36l15 18l26 -18q-59 -156 -194 -156q-61 0 -133 64.5t-133 64.5q-82 0 -160 -73zM221 313q0 -100 62.5 -150t160.5 -50q41 0 82 10q74 23 120 68t46 108v229q-61 12 -135 13 q-287 0 -330 -170q-6 -25 -6 -58z" />
<glyph unicode="&#xe4;" horiz-adv-x="927" d="M61 301q0 102 56 180q117 178 426 178q39 0 76.5 -3t56.5 -7l18 -2v64q0 47 -1 67.5t-12 54t-32 58.5q-61 68 -215 67q-172 0 -270 -86l26 154q86 63 273 64q203 0 295 -97q49 -53 65.5 -113.5t16.5 -168.5v-711h-86q-57 0 -58 57v70q-100 -141 -309 -141q-164 0 -245 89 t-81 226zM215 1340.5q0 37.5 26.5 64.5t63.5 27q45 0 74 -25t29 -66q0 -39 -29 -63.5t-68 -24.5q-43 0 -69.5 25t-26.5 62.5zM221 313q0 -100 62.5 -150t160.5 -50q41 0 82 10q74 23 120 68t46 108v229q-61 12 -135 13q-287 0 -330 -170q-6 -25 -6 -58zM520 1340.5 q0 37.5 26.5 64.5t65.5 27q45 0 73 -25t28 -66q0 -39 -28 -63.5t-69 -24.5q-43 0 -69.5 25t-26.5 62.5z" />
<glyph unicode="&#xe5;" horiz-adv-x="927" d="M61 301q0 102 56 180q117 178 426 178q39 0 76.5 -3t56.5 -7l18 -2v64q0 47 -1 67.5t-12 54t-32 58.5q-61 68 -215 67q-172 0 -270 -86l26 154q86 63 273 64q203 0 295 -97q49 -53 65.5 -113.5t16.5 -168.5v-711h-86q-57 0 -58 57v70q-100 -141 -309 -141q-164 0 -245 89 t-81 226zM221 313q0 -100 62.5 -150t160.5 -50q41 0 82 10q74 23 120 68t46 108v229q-61 12 -135 13q-287 0 -330 -170q-6 -25 -6 -58zM301 1384q0 63 46 108.5t108.5 45.5t108.5 -45t46 -108.5t-46 -109.5t-107 -46q-66 0 -111 44.5t-45 110.5zM354 1384q0 -43 30 -72.5 t71 -29.5t70.5 30.5t29.5 71.5t-29.5 71t-70.5 30t-71 -30t-30 -71z" />
<glyph unicode="&#xe6;" horiz-adv-x="1585" d="M61 301q0 102 56 180q117 178 426 178q39 0 76.5 -3t56.5 -7l18 -2v64q0 47 -1 67.5t-12 54t-32 58.5q-61 68 -215 67q-172 0 -270 -86l26 154q86 63 273 64q203 0 295 -97q27 -33 37 -49q115 147 323 148q84 0 149.5 -24t107.5 -60.5t74 -90t47 -101.5t25.5 -104.5 t12.5 -92t2 -72.5l-2 -58h-692q-2 -18 -2 -32q0 -147 90 -236q96 -92 274 -92q94 0 170 23.5t105 48.5l26 20l-22 -153q-12 -8 -36 -21.5t-103.5 -35t-167.5 -21.5q-279 0 -412 186q-68 -190 -377 -190q-164 0 -245 89t-81 226zM221 313q0 -100 62.5 -150t160.5 -50 q41 0 82 10q74 23 120 68t46 108v229q-61 12 -135 13q-287 0 -330 -170q-6 -25 -6 -58zM842 612h534q0 86 -22.5 161t-86 133.5t-159.5 58.5q-135 0 -200.5 -106t-65.5 -247z" />
<glyph unicode="&#xe7;" horiz-adv-x="864" d="M59 530q0 72 12.5 143.5t47.5 148.5t86 134.5t134 95.5t189 38q86 0 150.5 -19.5t87.5 -40.5l22 -18l23 -148q-8 10 -28.5 25.5t-86 41t-135.5 25.5q-338 0 -338 -428q0 -180 84 -289q82 -108 256 -108h6q74 2 140.5 27.5t97.5 52.5l29 25l-25 -170q-66 -39 -133 -56 q-68 -20 -152 -20l-6 -62h24q15 0 51 -5t64.5 -19.5t51 -45t22.5 -73.5q0 -74 -76.5 -119t-183.5 -45q-51 0 -97 12.5t-67.5 24.5t-21.5 14l16 90q72 -43 168 -43q59 2 97 24q36 20 36 51q0 57 -84 56q-10 0 -27.5 -2t-27.5 -6l-12 -2l-31 68l59 82q-115 4 -198 55 q-104 61 -164 189t-60 296z" />
<glyph unicode="&#xe8;" horiz-adv-x="968" d="M59 530.5q0 63.5 7.5 127t36 145.5t73.5 143.5t130 103.5t196 42q82 0 147.5 -24t108.5 -60.5t73.5 -90t47 -101.5t25.5 -104.5t11.5 -92t2.5 -72.5l-3 -58h-692q-2 -18 -2 -32q0 -147 92 -236q98 -92 275 -92q94 0 168.5 23.5t103.5 48.5l29 20l-23 -153 q-10 -8 -33.5 -21.5t-104.5 -35t-167 -21.5q-135 0 -232.5 42t-147.5 99t-78.5 139t-36 139.5t-7.5 121zM225 612h535q0 86 -22.5 161t-85 133.5t-158.5 58.5q-94 0 -158 -55.5t-87.5 -132.5t-23.5 -165zM336 1352l72 100l233 -180v-94z" />
<glyph unicode="&#xe9;" horiz-adv-x="968" d="M59 530.5q0 63.5 7.5 127t36 145.5t73.5 143.5t130 103.5t196 42q82 0 147.5 -24t108.5 -60.5t73.5 -90t47 -101.5t25.5 -104.5t11.5 -92t2.5 -72.5l-3 -58h-692q-2 -18 -2 -32q0 -147 92 -236q98 -92 275 -92q94 0 168.5 23.5t103.5 48.5l29 20l-23 -153 q-10 -8 -33.5 -21.5t-104.5 -35t-167 -21.5q-135 0 -232.5 42t-147.5 99t-78.5 139t-36 139.5t-7.5 121zM225 612h535q0 86 -22.5 161t-85 133.5t-158.5 58.5q-94 0 -158 -55.5t-87.5 -132.5t-23.5 -165zM340 1178v94l233 180l72 -100z" />
<glyph unicode="&#xea;" horiz-adv-x="968" d="M59 530.5q0 63.5 7.5 127t36 145.5t73.5 143.5t130 103.5t196 42q82 0 147.5 -24t108.5 -60.5t73.5 -90t47 -101.5t25.5 -104.5t11.5 -92t2.5 -72.5l-3 -58h-692q-2 -18 -2 -32q0 -147 92 -236q98 -92 275 -92q94 0 168.5 23.5t103.5 48.5l29 20l-23 -153 q-10 -8 -33.5 -21.5t-104.5 -35t-167 -21.5q-135 0 -232.5 42t-147.5 99t-78.5 139t-36 139.5t-7.5 121zM225 612h535q0 86 -22.5 161t-85 133.5t-158.5 58.5q-94 0 -158 -55.5t-87.5 -132.5t-23.5 -165zM334 1186v114l176 189l172 -189v-114l-172 149z" />
<glyph unicode="&#xeb;" horiz-adv-x="968" d="M59 530.5q0 63.5 7.5 127t36 145.5t73.5 143.5t130 103.5t196 42q82 0 147.5 -24t108.5 -60.5t73.5 -90t47 -101.5t25.5 -104.5t11.5 -92t2.5 -72.5l-3 -58h-692q-2 -18 -2 -32q0 -147 92 -236q98 -92 275 -92q94 0 168.5 23.5t103.5 48.5l29 20l-23 -153 q-10 -8 -33.5 -21.5t-104.5 -35t-167 -21.5q-135 0 -232.5 42t-147.5 99t-78.5 139t-36 139.5t-7.5 121zM225 612h535q0 86 -22.5 161t-85 133.5t-158.5 58.5q-94 0 -158 -55.5t-87.5 -132.5t-23.5 -165zM252 1340.5q0 37.5 26.5 64.5t63.5 27q43 0 72.5 -25t29.5 -66 q0 -39 -28.5 -63.5t-67.5 -24.5q-43 0 -69.5 25t-26.5 62.5zM559 1340.5q0 37.5 26.5 64.5t63.5 27q43 0 73 -25t30 -66q0 -39 -29 -63.5t-68 -24.5q-43 0 -69.5 25t-26.5 62.5z" />
<glyph unicode="&#xec;" horiz-adv-x="354" d="M25 1352l71 100l236 -180v-94zM106 0v1063h148v-1063h-148z" />
<glyph unicode="&#xed;" horiz-adv-x="354" d="M35 1178v94l235 180l70 -100zM106 0v1063h148v-1063h-148z" />
<glyph unicode="&#xee;" horiz-adv-x="354" d="M2 1186v114l172 189l176 -189v-114l-176 149zM106 0v1063h148v-1063h-148z" />
<glyph unicode="&#xef;" horiz-adv-x="354" d="M-74 1341.5q0 38.5 27 64.5t65 26q43 0 73 -25t30 -66q0 -39 -30 -63.5t-68 -24.5q-45 0 -71 25t-26 63.5zM106 0v1063h148v-1063h-148zM233 1341.5q0 38.5 27 64.5t64 26q45 0 73.5 -25t28.5 -66q0 -39 -28.5 -63.5t-69.5 -24.5q-43 0 -69 25t-26 63.5z" />
<glyph unicode="&#xf0;" d="M59 524q0 117 23.5 213.5t74 177t139.5 126.5t210 46q88 0 153.5 -26.5t88.5 -52.5l20 -27q0 147 -90 250l-279 -78v109l154 57q-68 29 -154 29q-92 0 -161.5 -30t-94.5 -61l-22 -28l35 155q10 10 28.5 25.5t89 41.5t156.5 26q180 0 299 -93l229 82v-157l-127 -35 q127 -193 127 -535q0 -223 -31.5 -368.5t-113.5 -247.5q-104 -137 -303 -137q-240 0 -345.5 139t-105.5 399zM215 518q0 -203 71.5 -303t223.5 -100q137 0 204.5 113.5t67.5 291.5q0 66 -4 117t-20.5 115.5t-44 107.5t-81.5 72t-126 29q-88 0 -148.5 -36t-90 -103.5 t-41 -139.5t-11.5 -164z" />
<glyph unicode="&#xf1;" horiz-adv-x="983" d="M106 0v1063h148v-129q16 45 90 101.5t199 56.5q203 0 286 -127q61 -90 62 -279v-686h-146v682q0 66 -6 106.5t-27.5 85t-70.5 66t-127 21.5q-111 0 -172 -54q-88 -80 -88 -243v-664h-148zM186 1333q76 141 203 142q70 0 140.5 -62.5t132.5 -62.5q41 0 74.5 17t49.5 36 l15 18l26 -18q-59 -156 -194 -156q-61 0 -133 64.5t-133 64.5q-82 0 -160 -73z" />
<glyph unicode="&#xf2;" d="M59 524q0 117 23.5 213.5t74 177t139.5 126.5t210 46q434 0 434 -561q0 -236 -113.5 -388t-316.5 -152q-240 0 -345.5 139t-105.5 399zM215 518q0 -203 71.5 -303t223.5 -100q137 0 204.5 113.5t67.5 291.5q0 66 -4 117t-20.5 115.5t-44 107.5t-81.5 72t-126 29 q-88 0 -148.5 -36t-90 -103.5t-41 -139.5t-11.5 -164zM336 1352l72 100l233 -180v-94z" />
<glyph unicode="&#xf3;" d="M59 524q0 117 23.5 213.5t74 177t139.5 126.5t210 46q434 0 434 -561q0 -236 -113.5 -388t-316.5 -152q-240 0 -345.5 139t-105.5 399zM215 518q0 -203 71.5 -303t223.5 -100q137 0 204.5 113.5t67.5 291.5q0 66 -4 117t-20.5 115.5t-44 107.5t-81.5 72t-126 29 q-88 0 -148.5 -36t-90 -103.5t-41 -139.5t-11.5 -164zM340 1178v94l233 180l72 -100z" />
<glyph unicode="&#xf4;" d="M59 524q0 117 23.5 213.5t74 177t139.5 126.5t210 46q434 0 434 -561q0 -236 -113.5 -388t-316.5 -152q-240 0 -345.5 139t-105.5 399zM215 518q0 -203 71.5 -303t223.5 -100q137 0 204.5 113.5t67.5 291.5q0 66 -4 117t-20.5 115.5t-44 107.5t-81.5 72t-126 29 q-88 0 -148.5 -36t-90 -103.5t-41 -139.5t-11.5 -164zM334 1186v114l176 189l172 -189v-114l-172 149z" />
<glyph unicode="&#xf5;" d="M59 524q0 117 23.5 213.5t74 177t139.5 126.5t210 46q434 0 434 -561q0 -236 -113.5 -388t-316.5 -152q-240 0 -345.5 139t-105.5 399zM186 1333q76 140 197 140h20q61 -4 127 -61.5t117 -59.5q29 -2 54.5 3t43 16t28.5 21.5t20 18.5l8 10l26 -18q-59 -157 -192 -157 q-11 0 -23 1q-47 4 -113.5 63.5t-115.5 63.5q-9 1 -17 1q-83 0 -159 -72zM215 518q0 -203 71.5 -303t223.5 -100q137 0 204.5 113.5t67.5 291.5q0 66 -4 117t-20.5 115.5t-44 107.5t-81.5 72t-126 29q-88 0 -148.5 -36t-90 -103.5t-41 -139.5t-11.5 -164z" />
<glyph unicode="&#xf6;" d="M59 524q0 117 23.5 213.5t74 177t139.5 126.5t210 46q434 0 434 -561q0 -236 -113.5 -388t-316.5 -152q-240 0 -345.5 139t-105.5 399zM215 518q0 -203 71.5 -303t223.5 -100q137 0 204.5 113.5t67.5 291.5q0 66 -4 117t-20.5 115.5t-44 107.5t-81.5 72t-126 29 q-88 0 -148.5 -36t-90 -103.5t-41 -139.5t-11.5 -164zM260 1340.5q0 37.5 26.5 64.5t63.5 27q43 0 73 -25t30 -66q0 -39 -29 -63.5t-68 -24.5q-43 0 -69.5 25t-26.5 62.5zM565 1340.5q0 37.5 26.5 64.5t65.5 27q43 0 73 -25t30 -66q0 -39 -29 -63.5t-67 -24.5q-45 0 -72 25 t-27 62.5z" />
<glyph unicode="&#xf7;" horiz-adv-x="1161" d="M113 647v150h925v-150h-925zM479 352q0 37 26.5 63.5t63.5 26.5q45 0 74 -24.5t29 -65.5q0 -37 -29 -61.5t-68 -24.5q-43 0 -69.5 24.5t-26.5 61.5zM479 1087.5q0 36.5 26.5 63.5t63.5 27q45 0 74 -25t29 -66q0 -37 -29 -61.5t-68 -24.5q-43 0 -69.5 25t-26.5 61.5z" />
<glyph unicode="&#xf8;" d="M25 -14l127 164q-10 10 -25.5 31.5t-41.5 116.5t-26 226q0 117 23.5 213.5t74 177t139.5 126.5t212 46q90 0 162.5 -26.5t99.5 -52.5l29 -25l71 96h91l-115 -153q10 -12 25.5 -39t42 -129.5t26.5 -231.5q0 -236 -114 -389q-112 -152 -313 -151h-5q-66 0 -122 12t-88 26.5 t-56.5 31t-32.5 26.5l-10 10l-78 -106h-96zM215 518q0 -154 39 -242l455 590q-68 94 -199 95q-295 -1 -295 -443zM289 211q68 -96 221 -96q137 0 204.5 113.5t67.5 291.5q0 176 -37 277z" />
<glyph unicode="&#xf9;" horiz-adv-x="983" d="M100 377v686h148v-680q0 -111 20 -154q14 -33 47 -63q51 -51 152 -51q102 0 186 58t84 146v744h148v-1063h-82q-61 0 -62 57v70q-102 -141 -303 -141q-156 0 -241 82q-97 90 -97 309zM336 1352l72 100l233 -180v-94z" />
<glyph unicode="&#xfa;" horiz-adv-x="983" d="M100 377v686h148v-680q0 -111 20 -154q14 -33 47 -63q51 -51 152 -51q102 0 186 58t84 146v744h148v-1063h-82q-61 0 -62 57v70q-102 -141 -303 -141q-156 0 -241 82q-97 90 -97 309zM360 1178v94l236 180l70 -100z" />
<glyph unicode="&#xfb;" horiz-adv-x="983" d="M100 377v686h148v-680q0 -111 20 -154q14 -33 47 -63q51 -51 152 -51q102 0 186 58t84 146v744h148v-1063h-82q-61 0 -62 57v70q-102 -141 -303 -141q-156 0 -241 82q-97 90 -97 309zM311 1186v114l174 189l174 -189v-114l-174 149z" />
<glyph unicode="&#xfc;" horiz-adv-x="983" d="M100 377v686h148v-680q0 -111 20 -154q14 -33 47 -63q51 -51 152 -51q102 0 186 58t84 146v744h148v-1063h-82q-61 0 -62 57v70q-102 -141 -303 -141q-156 0 -241 82q-97 90 -97 309zM244 1340.5q0 37.5 26.5 64.5t63.5 27q43 0 72.5 -25t29.5 -66q0 -39 -28.5 -63.5 t-67.5 -24.5q-43 0 -69.5 25t-26.5 62.5zM551 1340.5q0 37.5 26.5 64.5t63.5 27q43 0 72.5 -25t29.5 -66q0 -39 -28.5 -63.5t-67.5 -24.5q-43 0 -69.5 25t-26.5 62.5z" />
<glyph unicode="&#xfd;" horiz-adv-x="827" d="M10 1063h144l266 -887l258 887h141l-346 -1139q-20 -70 -27.5 -90t-29 -67.5t-41 -63.5t-54 -31.5t-79.5 -15.5q-33 0 -69 7t-54 15l-19 7l-14 133q66 -25 127 -25q80 0 111 121l22 86zM408 1178v94l233 180l72 -100z" />
<glyph unicode="&#xfe;" horiz-adv-x="995" d="M123 -340v1790h78q41 0 55 -11.5t14 -52.5v-452q29 59 90 104q68 55 185 56q168 0 264 -103q135 -141 135 -430q0 -143 -42 -267t-138 -212t-227 -88q-152 0 -275 119v-453h-139zM268 223q127 -82 242 -82q276 0 276 447q0 164 -63.5 267t-206.5 103q-127 0 -187.5 -75.5 t-60.5 -204.5v-455z" />
<glyph unicode="&#xff;" horiz-adv-x="827" d="M10 1063h144l266 -887l258 887h141l-346 -1139q-20 -70 -27.5 -90t-29 -67.5t-41 -63.5t-54 -31.5t-79.5 -15.5q-33 0 -69 7t-54 15l-19 7l-14 133q66 -25 127 -25q80 0 111 121l22 86zM166 1340.5q0 37.5 26.5 64.5t63.5 27q43 0 72.5 -25t29.5 -66q0 -39 -28.5 -63.5 t-67.5 -24.5q-43 0 -69.5 25t-26.5 62.5zM471 1340.5q0 37.5 26.5 64.5t65.5 27q43 0 72 -25t29 -66q0 -39 -28 -63.5t-69 -24.5q-43 0 -69.5 25t-26.5 62.5z" />
<glyph unicode="&#x152;" horiz-adv-x="1896" d="M123 743q0 158 30.5 285t98 228.5t185.5 157.5t276 56q109 0 190.5 -21.5t108.5 -45.5l28 -21v66h758l39 -154h-633v-467h555v-161h-555v-508h656l-50 -158h-770v76q-14 -8 -39.5 -24.5t-110.5 -43t-177 -26.5q-139 0 -245 42t-171.5 109.5t-105 167.5t-54 206.5 t-14.5 235.5zM301 729q0 -297 92 -445.5t314 -148.5q242 0 333 180v828q-2 8 -9 19.5t-32.5 42t-59.5 54t-97.5 42t-136.5 18.5q-125 0 -206 -42t-124 -127t-58.5 -183.5t-15.5 -237.5z" />
<glyph unicode="&#x153;" horiz-adv-x="1675" d="M59 524q0 117 24 213.5t74 177t139 126.5t210 46q250 0 354 -182q115 186 352 187q84 0 149.5 -24t107.5 -60.5t74 -90t47.5 -101.5t25.5 -104.5t12 -92t2 -72.5l-4 -58h-692v-32q0 -150 90 -236q96 -92 274 -92q94 0 169 23.5t102 48.5l28 20l-20 -153 q-12 -8 -35.5 -21.5t-103.5 -35t-168 -21.5q-291 0 -414 190q-119 -195 -346 -194q-240 0 -345.5 139t-105.5 399zM215 518q0 -203 71.5 -303t223.5 -100q137 0 204.5 113.5t67.5 291.5q0 66 -4 117t-20.5 115.5t-44 107.5t-81.5 72t-126 29q-88 0 -148.5 -36t-90 -103.5 t-41 -139.5t-11.5 -164zM936 612h532q0 86 -21.5 161t-84 133.5t-158.5 58.5q-137 0 -202.5 -106t-65.5 -247z" />
<glyph unicode="&#x178;" horiz-adv-x="1146" d="M8 1448h180l383 -655l387 655h181l-488 -795v-653h-166v659zM313 1626q0 37 27 63.5t63 26.5q43 0 73 -24.5t30 -65.5q0 -37 -30 -61.5t-68 -24.5q-43 0 -69 24.5t-26 61.5zM618 1626q0 37 27 63.5t66 26.5q43 0 71.5 -24.5t28.5 -65.5q0 -37 -28.5 -61.5t-69.5 -24.5 q-43 0 -69 24.5t-26 61.5z" />
<glyph unicode="&#x2c6;" horiz-adv-x="657" d="M76 1188q0 125 80 202.5t215 77.5q336 0 336 -450q0 -184 -88.5 -314.5t-276.5 -130.5q-61 0 -109.5 12.5t-64.5 24.5l-18 11l-27 100q57 -57 203 -57q139 0 202.5 88t63.5 219q-96 -59 -230 -60q-117 0 -201.5 71t-84.5 206zM186 1194q0 -88 50.5 -142.5t148.5 -54.5 q66 0 118 14.5t70 28.5l19 15q2 18 2 49q0 113 -51 193.5t-170 80.5q-88 0 -137.5 -51t-49.5 -133z" />
<glyph unicode="&#x2dc;" horiz-adv-x="983" d="M186 1333q76 141 203 142q70 0 140.5 -62.5t132.5 -62.5q41 0 74.5 17t49.5 36l15 18l26 -18q-59 -156 -194 -156q-61 0 -133 64.5t-133 64.5q-82 0 -160 -73z" />
<glyph unicode="&#x2000;" horiz-adv-x="931" />
<glyph unicode="&#x2001;" horiz-adv-x="1862" />
<glyph unicode="&#x2002;" horiz-adv-x="931" />
<glyph unicode="&#x2003;" horiz-adv-x="1862" />
<glyph unicode="&#x2004;" horiz-adv-x="620" />
<glyph unicode="&#x2005;" horiz-adv-x="465" />
<glyph unicode="&#x2006;" horiz-adv-x="310" />
<glyph unicode="&#x2007;" horiz-adv-x="310" />
<glyph unicode="&#x2008;" horiz-adv-x="232" />
<glyph unicode="&#x2009;" horiz-adv-x="372" />
<glyph unicode="&#x200a;" horiz-adv-x="103" />
<glyph unicode="&#x2010;" horiz-adv-x="802" d="M57 483v160h688v-160h-688z" />
<glyph unicode="&#x2011;" horiz-adv-x="802" d="M57 483v160h688v-160h-688z" />
<glyph unicode="&#x2012;" horiz-adv-x="802" d="M57 483v160h688v-160h-688z" />
<glyph unicode="&#x2013;" horiz-adv-x="1161" d="M115 647v158h925v-158h-925z" />
<glyph unicode="&#x2014;" horiz-adv-x="1794" d="M72 506v90h1661v-90h-1661z" />
<glyph unicode="&#x2018;" horiz-adv-x="374" d="M61 1071q0 111 40 201t120 201l70 -43q-86 -143 -86 -246q0 -39 9 -82t22 -66l10 -24l-168 -70q-17 53 -17 129z" />
<glyph unicode="&#x2019;" horiz-adv-x="374" d="M61 985q84 145 84 246q0 39 -10 81t-20 66l-11 23l168 72q16 -53 17 -130q0 -113 -40 -202.5t-122 -198.5z" />
<glyph unicode="&#x201a;" horiz-adv-x="374" d="M61 -182q84 143 84 243q0 39 -10 82t-20 68l-11 22l168 72q16 -53 17 -133q0 -109 -41 -202t-121 -197z" />
<glyph unicode="&#x201c;" horiz-adv-x="622" d="M61 1071q0 111 40 201t120 201l70 -43q-86 -143 -86 -246q0 -39 9 -82t22 -66l10 -24l-168 -70q-17 53 -17 129zM311 1069q0 111 41 203t119 198l70 -45q-86 -141 -86 -243q0 -39 10 -82t20 -68l11 -24l-168 -70q-17 53 -17 131z" />
<glyph unicode="&#x201d;" horiz-adv-x="622" d="M61 985q84 145 84 246q0 39 -10 81t-20 66l-11 23l168 72q16 -53 17 -130q0 -113 -40 -202.5t-122 -198.5zM309 983q86 143 86 246q0 39 -11 81t-19 66l-11 25l166 69q18 -53 19 -129q0 -113 -40 -202.5t-122 -200.5z" />
<glyph unicode="&#x201e;" horiz-adv-x="622" d="M61 -182q84 143 84 243q0 39 -10 82t-20 68l-11 22l168 72q16 -53 17 -133q0 -109 -41 -202t-121 -197zM309 -186q86 143 86 245q0 39 -11 81t-19 67l-11 22l166 72q18 -53 19 -129q0 -113 -40 -204t-122 -197z" />
<glyph unicode="&#x2022;" horiz-adv-x="628" d="M4 733q0 104 67.5 181t189.5 77t189.5 -76.5t67.5 -181t-67.5 -181.5t-189.5 -77t-189.5 76t-67.5 182z" />
<glyph unicode="&#x2026;" horiz-adv-x="1075" d="M84 80q0 39 26.5 65.5t63.5 26.5q45 0 73.5 -24.5t28.5 -67.5q0 -37 -28.5 -61.5t-69.5 -24.5q-43 0 -68.5 23.5t-25.5 62.5zM440 77q0 38 27 64.5t63 26.5q43 0 73 -24.5t30 -67.5q0 -37 -29 -61.5t-67 -24.5q-43 0 -70 24.5t-27 62.5zM797 75q0 38 26.5 64.5t63.5 26.5 q45 0 73.5 -24.5t28.5 -67.5q0 -37 -28.5 -61.5t-67.5 -24.5q-43 0 -69.5 24.5t-26.5 62.5z" />
<glyph unicode="&#x202f;" horiz-adv-x="372" />
<glyph unicode="&#x2039;" horiz-adv-x="421" d="M4 666l217 327l148 -24l-179 -303l179 -297l-148 -23z" />
<glyph unicode="&#x203a;" horiz-adv-x="421" d="M59 969l146 24l217 -327l-215 -320l-146 23l177 297z" />
<glyph unicode="&#x205f;" horiz-adv-x="465" />
<glyph unicode="&#x20ac;" horiz-adv-x="1179" d="M33 569l24 107h117v43q0 45 4 78h-145l24 106h138q47 248 196 395q168 162 434 162q68 0 125.5 -13t83.5 -28l23 -14l39 -158q-119 63 -287 64q-197 0 -324 -146q-88 -102 -116 -262h628l-20 -106h-621q-4 -47 -4 -74q0 -8 1 -23.5t1 -23.5h600l-20 -107h-569 q29 -221 140 -323.5t322 -102.5q61 0 140.5 22.5t121 42t52.5 25.5l-58 -188q-12 -8 -34.5 -18.5t-106.5 -30t-184 -19.5q-225 0 -387 146q-154 143 -189 446h-149z" />
<glyph unicode="&#x2122;" horiz-adv-x="595" d="M63 1421v27h189v-27h-78v-393h-33v393h-78zM307 1028v420h58l84 -354l94 354h55v-420h-33v395l-100 -395h-31l-96 395v-395h-31z" />
<glyph unicode="&#xe000;" horiz-adv-x="1065" d="M0 1065h1065v-1065h-1065v1065z" />
<glyph unicode="&#xfb01;" horiz-adv-x="839" d="M8 942l33 121h127v84q0 162 62.5 236.5t195.5 74.5q51 0 95 -13t65 -30l20 -14l12 -121q-53 45 -159 45q-86 0 -117 -39t-31 -127v-96h213l-26 -121h-185v-942h-145v942h-160zM592 0v1063h145v-1063h-145z" />
<glyph unicode="&#xfb02;" horiz-adv-x="888" d="M8 942l33 121h127v127q0 121 65.5 194.5t182.5 73.5q31 0 57.5 -7t36.5 -15l8 -6l14 -138q-35 33 -108 33q-49 0 -81 -32.5t-32 -88.5v-141h213l-26 -121h-185v-942h-145v942h-160zM616 0v1450h148v-1450h-148z" />
<glyph unicode="&#xfb03;" horiz-adv-x="1434" d="M1168 1337q0 39 26.5 59.5t65.5 20.5q37 0 63.5 -20.5t26.5 -53.5q0 -41 -25.5 -63.5t-64.5 -22.5q-41 0 -67 21q-25 19 -25 59zM1186 0v1063h148v-1063h-148zM548 942l33 121h127v127q0 121 65.5 194.5t182.5 73.5q31 0 57.5 -7t36.5 -15l8 -6l14 -138q-35 33 -108 33 q-49 0 -81 -32.5t-32 -88.5v-141h213l-26 -121h-185v-942h-145v942h-160zM8 942l33 121h127v127q0 121 65.5 194.5t182.5 73.5q31 0 57.5 -7t36.5 -15l8 -6l14 -138q-35 33 -108 33q-49 0 -81 -32.5t-32 -88.5v-141h213l-26 -121h-185v-942h-145v942h-160z" />
<glyph unicode="&#xfb04;" horiz-adv-x="1473" d="M1203 0v1450h147v-1450h-147zM548 942l33 121h127v127q0 121 65.5 194.5t182.5 73.5q31 0 57.5 -7t36.5 -15l8 -6l14 -138q-35 33 -108 33q-49 0 -81 -32.5t-32 -88.5v-141h213l-26 -121h-185v-942h-145v942h-160zM8 942l33 121h127v127q0 121 65.5 194.5t182.5 73.5 q31 0 57.5 -7t36.5 -15l8 -6l14 -138q-35 33 -108 33q-49 0 -81 -32.5t-32 -88.5v-141h213l-26 -121h-185v-942h-145v942h-160z" />
</font>
</defs>
</svg>
